<?xml version="1.0" encoding="UTF-8" standalone="no"?>
<!DOCTYPE svg PUBLIC "-//W3C//DTD SVG 1.1//EN"
 "http://www.w3.org/Graphics/SVG/1.1/DTD/svg11.dtd">
<!-- Generated by graphviz version 14.0.2 (20251019.1705)
 -->
<!-- Pages: 1 -->
<svg width="3000pt" height="321pt"
 viewBox="0.00 0.00 3000.00 321.00" xmlns="http://www.w3.org/2000/svg" xmlns:xlink="http://www.w3.org/1999/xlink">
<g id="graph0" class="graph" transform="scale(2.76428 2.76428) rotate(0) translate(4 112)">
<polygon fill="white" stroke="none" points="-4,4 -4,-112 1081.28,-112 1081.28,4 -4,4"/>
<!-- Q -->
<g id="node1" class="node">
<title>Q</title>
<ellipse fill="skyblue" stroke="skyblue" cx="53.91" cy="-46" rx="53.91" ry="18"/>
<text xml:space="preserve" text-anchor="middle" x="53.91" y="-40.95" font-family="Times New Roman,serif" font-size="14.00">User Query</text>
</g>
<!-- E -->
<g id="node2" class="node">
<title>E</title>
<polygon fill="lightgreen" stroke="lightgreen" points="368.32,-108 249.57,-108 249.57,-72 368.32,-72 368.32,-108"/>
<text xml:space="preserve" text-anchor="middle" x="308.95" y="-84.95" font-family="Times New Roman,serif" font-size="14.00">Embedding Model</text>
</g>
<!-- Q&#45;&gt;E -->
<g id="edge1" class="edge">
<title>Q&#45;&gt;E</title>
<path fill="none" stroke="black" d="M102.5,-54.28C140.75,-60.93 195.01,-70.36 238.16,-77.87"/>
<polygon fill="black" stroke="black" points="237.5,-81.3 247.95,-79.57 238.7,-74.41 237.5,-81.3"/>
<text xml:space="preserve" text-anchor="middle" x="178.7" y="-77.71" font-family="Times New Roman,serif" font-size="14.00">embedding path</text>
</g>
<!-- R -->
<g id="node4" class="node">
<title>R</title>
<polygon fill="lightcoral" stroke="lightcoral" points="461.57,-36 395.32,-36 395.32,0 461.57,0 461.57,-36"/>
<text xml:space="preserve" text-anchor="middle" x="428.45" y="-12.95" font-family="Times New Roman,serif" font-size="14.00">Retriever</text>
</g>
<!-- Q&#45;&gt;R -->
<g id="edge2" class="edge">
<title>Q&#45;&gt;R</title>
<path fill="none" stroke="black" d="M103.43,-38.33C113.77,-36.89 124.64,-35.52 134.82,-34.5 222.93,-25.69 326.46,-21.24 383.74,-19.28"/>
<polygon fill="black" stroke="black" points="383.51,-22.79 393.38,-18.96 383.27,-15.8 383.51,-22.79"/>
<text xml:space="preserve" text-anchor="middle" x="178.7" y="-37.7" font-family="Times New Roman,serif" font-size="14.00">retrieval path</text>
</g>
<!-- V -->
<g id="node3" class="node">
<title>V</title>
<path fill="lightyellow" stroke="lightyellow" d="M570.82,-103.73C570.82,-105.53 554.29,-107 533.95,-107 513.6,-107 497.07,-105.53 497.07,-103.73 497.07,-103.73 497.07,-74.27 497.07,-74.27 497.07,-72.47 513.6,-71 533.95,-71 554.29,-71 570.82,-72.47 570.82,-74.27 570.82,-74.27 570.82,-103.73 570.82,-103.73"/>
<path fill="none" stroke="lightyellow" d="M570.82,-103.73C570.82,-101.92 554.29,-100.45 533.95,-100.45 513.6,-100.45 497.07,-101.92 497.07,-103.73"/>
<text xml:space="preserve" text-anchor="middle" x="533.95" y="-83.95" font-family="Times New Roman,serif" font-size="14.00">Vector DB</text>
</g>
<!-- E&#45;&gt;V -->
<g id="edge3" class="edge">
<title>E&#45;&gt;V</title>
<path fill="none" stroke="black" d="M368.54,-89.74C405.06,-89.57 451.44,-89.37 485.62,-89.21"/>
<polygon fill="black" stroke="black" points="485.21,-92.71 495.2,-89.17 485.18,-85.71 485.21,-92.71"/>
<text xml:space="preserve" text-anchor="middle" x="428.45" y="-92.79" font-family="Times New Roman,serif" font-size="14.00">index</text>
</g>
<!-- G -->
<g id="node5" class="node">
<title>G</title>
<ellipse fill="lightgray" stroke="lightgray" cx="775.61" cy="-48" rx="70.29" ry="18"/>
<text xml:space="preserve" text-anchor="middle" x="775.61" y="-42.95" font-family="Times New Roman,serif" font-size="14.00">LLM Generator</text>
</g>
<!-- V&#45;&gt;G -->
<g id="edge4" class="edge">
<title>V&#45;&gt;G</title>
<path fill="none" stroke="black" d="M571.09,-82.82C606.45,-76.77 661.24,-67.39 705.07,-59.9"/>
<polygon fill="black" stroke="black" points="705.49,-63.38 714.76,-58.24 704.31,-56.48 705.49,-63.38"/>
<text xml:space="preserve" text-anchor="middle" x="642.32" y="-78.94" font-family="Times New Roman,serif" font-size="14.00">vector merge</text>
</g>
<!-- R&#45;&gt;G -->
<g id="edge5" class="edge">
<title>R&#45;&gt;G</title>
<path fill="none" stroke="black" d="M461.92,-20.82C515.39,-25.47 623.42,-34.86 697.38,-41.29"/>
<polygon fill="black" stroke="black" points="696.72,-44.74 706.99,-42.12 697.33,-37.77 696.72,-44.74"/>
<text xml:space="preserve" text-anchor="middle" x="533.95" y="-33.64" font-family="Times New Roman,serif" font-size="14.00">context combine</text>
</g>
<!-- A -->
<g id="node6" class="node">
<title>A</title>
<ellipse fill="lightblue" stroke="lightblue" cx="1016.71" cy="-48" rx="60.56" ry="18"/>
<text xml:space="preserve" text-anchor="middle" x="1016.71" y="-42.95" font-family="Times New Roman,serif" font-size="14.00">Final Answer</text>
</g>
<!-- G&#45;&gt;A -->
<g id="edge6" class="edge">
<title>G&#45;&gt;A</title>
<path fill="none" stroke="black" d="M846.09,-48C877.03,-48 913.44,-48 944.58,-48"/>
<polygon fill="black" stroke="black" points="944.28,-51.5 954.28,-48 944.28,-44.5 944.28,-51.5"/>
<text xml:space="preserve" text-anchor="middle" x="901.02" y="-51.2" font-family="Times New Roman,serif" font-size="14.00">synthesize</text>
</g>
</g>
</svg>
