<?xml version="1.0" encoding="UTF-8" standalone="no"?>
<!DOCTYPE svg PUBLIC "-//W3C//DTD SVG 1.1//EN"
 "http://www.w3.org/Graphics/SVG/1.1/DTD/svg11.dtd">
<!-- Generated by graphviz version 14.0.2 (20251019.1705)
 -->
<!-- Pages: 1 -->
<svg width="3000pt" height="146pt"
 viewBox="0.00 0.00 3000.00 146.00" xmlns="http://www.w3.org/2000/svg" xmlns:xlink="http://www.w3.org/1999/xlink">
<g id="graph0" class="graph" transform="scale(2.6402 2.6402) rotate(0) translate(4 51.19)">
<polygon fill="white" stroke="none" points="-4,4 -4,-51.19 1132.28,-51.19 1132.28,4 -4,4"/>
<!-- Q -->
<g id="node1" class="node">
<title>Q</title>
<ellipse fill="skyblue" stroke="skyblue" cx="53.91" cy="-29.19" rx="53.91" ry="18"/>
<text xml:space="preserve" text-anchor="middle" x="53.91" y="-24.14" font-family="Times New Roman,serif" font-size="14.00">User Query</text>
</g>
<!-- E -->
<g id="node2" class="node">
<title>E</title>
<polygon fill="lightgreen" stroke="lightgreen" points="317.32,-47.19 198.57,-47.19 198.57,-11.19 317.32,-11.19 317.32,-47.19"/>
<text xml:space="preserve" text-anchor="middle" x="257.95" y="-24.14" font-family="Times New Roman,serif" font-size="14.00">Embedding Model</text>
</g>
<!-- Q&#45;&gt;E -->
<g id="edge1" class="edge">
<title>Q&#45;&gt;E</title>
<path fill="none" stroke="black" d="M108.26,-29.19C132.39,-29.19 161.24,-29.19 187.07,-29.19"/>
<polygon fill="black" stroke="black" points="186.81,-32.69 196.81,-29.19 186.81,-25.69 186.81,-32.69"/>
<text xml:space="preserve" text-anchor="middle" x="153.2" y="-32.39" font-family="Times New Roman,serif" font-size="14.00">embed</text>
</g>
<!-- V -->
<g id="node3" class="node">
<title>V</title>
<path fill="lightyellow" stroke="lightyellow" d="M509.57,-43.92C509.57,-45.72 493.04,-47.19 472.7,-47.19 452.35,-47.19 435.82,-45.72 435.82,-43.92 435.82,-43.92 435.82,-14.46 435.82,-14.46 435.82,-12.66 452.35,-11.19 472.7,-11.19 493.04,-11.19 509.57,-12.66 509.57,-14.46 509.57,-14.46 509.57,-43.92 509.57,-43.92"/>
<path fill="none" stroke="lightyellow" d="M509.57,-43.92C509.57,-42.11 493.04,-40.65 472.7,-40.65 452.35,-40.65 435.82,-42.11 435.82,-43.92"/>
<text xml:space="preserve" text-anchor="middle" x="472.7" y="-24.14" font-family="Times New Roman,serif" font-size="14.00">Vector DB</text>
</g>
<!-- E&#45;&gt;V -->
<g id="edge2" class="edge">
<title>E&#45;&gt;V</title>
<path fill="none" stroke="black" d="M317.64,-29.19C351.27,-29.19 392.92,-29.19 424.43,-29.19"/>
<polygon fill="black" stroke="black" points="424.03,-32.69 434.03,-29.19 424.03,-25.69 424.03,-32.69"/>
<text xml:space="preserve" text-anchor="middle" x="376.57" y="-32.39" font-family="Times New Roman,serif" font-size="14.00">store/search</text>
</g>
<!-- R -->
<g id="node6" class="node">
<title>R</title>
<ellipse fill="none" stroke="black" cx="631.82" cy="-29.19" rx="27" ry="18"/>
<text xml:space="preserve" text-anchor="middle" x="631.82" y="-24.14" font-family="Times New Roman,serif" font-size="14.00">R</text>
</g>
<!-- V&#45;&gt;R -->
<g id="edge3" class="edge">
<title>V&#45;&gt;R</title>
<path fill="none" stroke="black" d="M509.74,-29.19C534.77,-29.19 568.04,-29.19 593.37,-29.19"/>
<polygon fill="black" stroke="black" points="593.23,-32.69 603.23,-29.19 593.23,-25.69 593.23,-32.69"/>
<text xml:space="preserve" text-anchor="middle" x="557.2" y="-32.39" font-family="Times New Roman,serif" font-size="14.00">retrieve</text>
</g>
<!-- G -->
<g id="node4" class="node">
<title>G</title>
<ellipse fill="lightgray" stroke="lightgray" cx="842.36" cy="-29.19" rx="70.29" ry="18"/>
<text xml:space="preserve" text-anchor="middle" x="842.36" y="-24.14" font-family="Times New Roman,serif" font-size="14.00">LLM Generator</text>
</g>
<!-- A -->
<g id="node5" class="node">
<title>A</title>
<ellipse fill="lightblue" stroke="lightblue" cx="1067.71" cy="-29.19" rx="60.56" ry="18"/>
<text xml:space="preserve" text-anchor="middle" x="1067.71" y="-24.14" font-family="Times New Roman,serif" font-size="14.00">Final Answer</text>
</g>
<!-- G&#45;&gt;A -->
<g id="edge6" class="edge">
<title>G&#45;&gt;A</title>
<path fill="none" stroke="black" d="M913.11,-29.19C939.31,-29.19 969.12,-29.19 995.45,-29.19"/>
<polygon fill="black" stroke="black" points="995.38,-32.69 1005.38,-29.19 995.38,-25.69 995.38,-32.69"/>
<text xml:space="preserve" text-anchor="middle" x="959.9" y="-32.39" font-family="Times New Roman,serif" font-size="14.00">finalize</text>
</g>
<!-- G&#45;&gt;R -->
<g id="edge5" class="edge">
<title>G&#45;&gt;R</title>
<path fill="none" stroke="blue" d="M801.46,-14.19C769.88,-4.35 724.77,5.19 685.82,-3.69 677.93,-5.49 669.84,-8.62 662.44,-12.09"/>
<polygon fill="blue" stroke="blue" points="660.87,-8.96 653.53,-16.6 664.03,-15.2 660.87,-8.96"/>
<text xml:space="preserve" text-anchor="middle" x="715.45" y="-6.89" font-family="Times New Roman,serif" font-size="14.00">refine loop</text>
</g>
<!-- R&#45;&gt;G -->
<g id="edge4" class="edge">
<title>R&#45;&gt;G</title>
<path fill="none" stroke="black" d="M659.23,-29.19C684.65,-29.19 724.4,-29.19 760.3,-29.19"/>
<polygon fill="black" stroke="black" points="760.28,-32.69 770.28,-29.19 760.28,-25.69 760.28,-32.69"/>
<text xml:space="preserve" text-anchor="middle" x="715.45" y="-32.39" font-family="Times New Roman,serif" font-size="14.00">generate</text>
</g>
</g>
</svg>
